<?xml version="1.0" encoding="UTF-8"?>
<svg width="1423px" height="1226px" viewBox="0 0 1423 1226" version="1.1" xmlns="http://www.w3.org/2000/svg" xmlns:xlink="http://www.w3.org/1999/xlink">
    <!-- Generator: Sketch 53.2 (72643) - https://sketchapp.com -->
    <title>Untitled</title>
    <desc>Created with Sketch.</desc>
    <g id="Page-1" stroke="none" stroke-width="1" fill="none" fill-rule="evenodd" stroke-linejoin="round">
        <g id="tshirt" transform="translate(12.000000, 12.000000)" stroke="#000000" stroke-width="24">
            <path d="M1096.43,76.27 L879.87,0.2 C787.97,48.41 699.2,42.2 699.2,42.2 C696.2,42.43 610.52,48.38 518.62,0.2 L302.06,76.27 L0.23,306.94 C0.23,306.94 4.52,363.99 52.38,432.7 C100.24,501.41 129.06,532.7 129.06,532.7 L300.84,450.5 L298.08,1163.06 C298.08,1163.06 377.08,1201.25 698.03,1201.25 C1018.98,1201.25 1022.67,1186.25 1101.35,1163.06 L1097.67,450.5 L1269.44,532.71 C1269.44,532.71 1298.27,501.42 1346.13,432.71 C1393.99,364 1398.28,306.95 1398.28,306.95 L1096.43,76.27 Z" id="Path" fill="#FFFFFF"></path>
            <path d="M50.23,276.94 C50.23,276.94 54.52,333.99 102.38,402.7 C150.24,471.41 179.06,502.7 179.06,502.7" id="Path"></path>
            <path d="M1349.06,276.94 C1349.06,276.94 1344.77,333.99 1296.91,402.7 C1249.05,471.41 1220.23,502.7 1220.23,502.7" id="Path"></path>
            <path d="M298.08,1103.06 C298.08,1103.06 377.08,1141.25 698.03,1141.25 C1018.98,1141.25 1022.67,1126.25 1101.35,1103.06" id="Path"></path>
            <path d="M877.54,0.2 C877.54,0.2 841.9,144.37 697.92,144.37 C553.94,144.37 518.62,0.2 518.62,0.2" id="Path"></path>
            <path d="M934.27,10.2 C934.27,10.2 887.34,200.05 697.73,200.05 C508.12,200.05 461.62,10.2 461.62,10.2" id="Path"></path>
        </g>
    </g>
</svg>